# Blender 5.0.1
# www.blender.org
mtllib Untitled.mtl
o Cube.001
v 1.000000 4.069736 -8.812267
v 1.000000 2.069736 -8.812267
v 1.000000 4.069737 8.812267
v 1.000000 2.069738 8.812267
v -1.000000 4.069736 -8.812267
v -1.000000 2.069736 -8.812267
v -1.000000 4.069737 8.812267
v -1.000000 2.069738 8.812267
v 1.000000 2.069736 -10.889335
v -1.000000 2.069736 -10.889335
v 1.000000 4.069736 -10.889335
v -1.000000 4.069736 -10.889335
v -8.291580 4.069736 -8.812267
v -8.291580 2.069736 -8.812267
v -8.291580 4.069736 -10.889335
v -8.291580 2.069736 -10.889335
vn -0.0000 -1.0000 -0.0000
vn -0.0000 -0.0000 -1.0000
vn 1.0000 -0.0000 -0.0000
vn -0.0000 1.0000 -0.0000
vn -1.0000 -0.0000 -0.0000
vn -0.0000 -0.0000 1.0000
vt 0.625000 0.500000
vt 0.625000 0.750000
vt 0.875000 0.750000
vt 0.875000 0.500000
vt 0.375000 0.750000
vt 0.375000 1.000000
vt 0.625000 1.000000
vt 0.375000 0.000000
vt 0.375000 0.250000
vt 0.625000 0.250000
vt 0.625000 0.000000
vt 0.125000 0.500000
vt 0.125000 0.750000
vt 0.375000 0.500000
s 1
usemtl Material.001
f 1/1/1 3/2/1 7/3/1 5/4/1
f 4/5/2 8/6/2 7/7/2 3/2/2
f 8/8/3 6/9/3 5/10/3 7/11/3
f 6/12/4 8/13/4 4/5/4 2/14/4
f 2/14/5 4/5/5 3/2/5 1/1/5
f 1/1/5 11/1/5 9/14/5 2/14/5
f 10/9/6 9/14/6 11/1/6 12/10/6
f 5/4/1 13/4/1 15/4/1 12/4/1
f 2/14/4 9/14/4 10/12/4 6/12/4
f 5/4/1 12/4/1 11/1/1 1/1/1
f 14/9/3 16/9/3 15/10/3 13/10/3
f 6/9/2 14/9/2 13/10/2 5/10/2
f 12/10/6 15/10/6 16/9/6 10/9/6
f 10/12/4 16/12/4 14/12/4 6/12/4
