# Blender 5.0.1
# www.blender.org
mtllib forSSAO.mtl
o Cube
v -9.579961 31.137928 9.579961
v -9.579961 50.297848 9.579961
v -9.579961 31.137928 -9.579961
v -9.579961 50.297848 -9.579961
v 9.579961 31.137928 9.579961
v 9.579961 50.297848 9.579961
v 9.579961 31.137928 -9.579961
v 9.579961 50.297848 -9.579961
v -37.635094 31.137928 -9.579961
v -37.635094 31.137928 9.579961
v -37.635094 50.297848 9.579961
v -37.635094 50.297848 -9.579961
v -9.579961 31.137928 39.587742
v -9.579961 50.297848 39.587742
v 9.579961 50.297848 39.587742
v 9.579961 31.137928 39.587742
v -9.579961 83.327339 9.579961
v -9.579961 83.327339 -9.579961
v 9.579961 83.327339 -9.579961
v 9.579961 83.327339 9.579961
v 9.579961 50.297848 52.536488
v -9.579961 50.297848 52.536488
v 9.579961 83.327339 52.536488
v -9.579961 83.327339 52.536488
v -57.097946 50.297848 9.579961
v -57.097946 50.297848 -9.579961
v -57.097946 83.327339 9.579961
v -57.097946 83.327339 -9.579961
v -9.579961 13.227083 -9.579961
v -9.579961 13.227083 9.579961
v 9.579961 13.227083 -9.579961
v 9.579961 13.227083 9.579961
v -9.579961 24.513369 -9.579961
v -9.579961 24.513369 9.579961
v 9.579961 24.513369 9.579961
v 9.579961 24.513369 -9.579961
v -49.913277 13.227083 -9.579961
v -49.913277 13.227083 9.579961
v -49.913277 24.513369 -9.579961
v -49.913277 24.513369 9.579961
v -9.579961 13.227083 62.056973
v 9.579961 13.227083 62.056973
v 9.579961 24.513369 62.056973
v -9.579961 24.513369 62.056973
v 9.579961 13.227083 35.818466
v -9.579961 13.227083 35.818466
v 9.579961 24.513369 35.818466
v -9.579961 24.513369 35.818466
v -29.746618 13.227083 -9.579961
v -29.746618 24.513369 -9.579961
v -29.746618 24.513369 9.579961
v -29.746618 13.227083 9.579961
v -49.913277 13.227083 20.340782
v -49.913277 24.513369 20.340782
v -29.746618 13.227083 20.340782
v -29.746618 24.513369 20.340782
v -29.367331 13.227083 62.056973
v -29.367331 24.513369 62.056973
v -29.367331 24.513369 35.818466
v -29.367331 13.227083 35.818466
v -9.579961 13.227083 69.520882
v -9.579961 24.513369 69.520882
v -29.367331 13.227083 69.520882
v -29.367331 24.513369 69.520882
v -70.919914 13.227083 9.579961
v -70.919914 24.513369 9.579961
v -70.919914 13.227083 20.340782
v -70.919914 24.513369 20.340782
v -49.913277 36.243114 9.579961
v -49.913277 36.243114 20.340782
v -70.919914 36.243114 9.579961
v -70.919914 36.243114 20.340782
v -9.579961 36.938633 62.056973
v -29.367331 36.938633 62.056973
v -9.579961 36.938633 69.520882
v -29.367331 36.938633 69.520882
v -49.913277 24.513369 -42.130455
v -49.913277 13.227083 -42.130455
v -29.746618 13.227083 -42.130455
v -29.746618 24.513369 -42.130455
v -29.746618 24.513369 -25.855207
v -49.913277 24.513369 -25.855207
v -49.913277 13.227083 -25.855207
v -29.746618 13.227083 -25.855207
v -49.913277 36.524017 -42.130455
v -29.746618 36.524017 -42.130455
v -29.746618 36.524017 -25.855207
v -49.913277 36.524017 -25.855207
v 42.066010 24.513369 62.056973
v 42.066010 13.227083 62.056973
v 42.066010 13.227083 35.818466
v 42.066010 24.513369 35.818466
v 26.879307 24.513369 62.056973
v 26.879307 24.513369 35.818466
v 26.879307 13.227083 35.818466
v 26.879307 13.227083 62.056973
v 42.066010 33.806561 35.818466
v 42.066010 33.806561 62.056973
v 26.879307 33.806561 62.056973
v 26.879307 33.806561 35.818466
v -9.579961 24.513369 92.485786
v -29.367331 24.513369 92.485786
v -9.579961 36.938633 92.485786
v -29.367331 36.938633 92.485786
v -97.069206 24.513369 9.579961
v -97.069206 24.513369 20.340782
v -97.069206 36.243114 9.579961
v -97.069206 36.243114 20.340782
vn -0.0000 1.0000 -0.0000
vn -0.0000 -0.0000 -1.0000
vn 1.0000 -0.0000 -0.0000
vn -0.0000 -1.0000 -0.0000
vn -1.0000 -0.0000 -0.0000
vn -0.0000 -0.0000 1.0000
vt 0.875000 0.750000
vt 0.875000 0.500000
vt 0.375000 0.250000
vt 0.625000 0.250000
vt 0.625000 0.500000
vt 0.375000 0.500000
vt 0.625000 0.750000
vt 0.375000 0.750000
vt 0.375000 0.000000
vt 0.625000 0.000000
vt 0.125000 0.500000
vt 0.125000 0.750000
vt 0.375000 1.000000
vt 0.625000 1.000000
vt 0.375000 0.750000
s 0
f 2/1/1 4/2/1 12/2/1 11/1/1
f 3/3/2 4/4/2 8/5/2 7/6/2
f 7/6/3 8/5/3 6/7/3 5/8/3
f 6/7/1 2/1/1 14/1/1 15/7/1
f 80/3/2 77/3/2 85/3/2 86/3/2
f 4/2/4 2/1/4 25/1/4 26/2/4
f 10/9/5 11/10/5 12/4/5 9/3/5
f 3/11/4 1/12/4 10/12/4 9/11/4
f 4/4/2 3/3/2 9/3/2 12/4/2
f 1/13/6 2/14/6 11/14/6 10/13/6
f 16/8/6 15/7/6 14/14/6 13/13/6
f 5/8/3 6/7/3 15/7/3 16/8/3
f 2/14/5 1/13/5 13/13/5 14/14/5
f 1/12/4 5/8/4 16/8/4 13/12/4
f 19/5/1 18/2/1 17/1/1 20/7/1
f 2/1/4 6/7/4 21/7/4 22/1/4
f 8/5/2 4/4/2 18/4/2 19/5/2
f 6/7/3 8/5/3 19/5/3 20/7/3
f 22/1/6 21/7/6 23/7/6 24/1/6
f 20/7/1 17/1/1 24/1/1 23/7/1
f 6/7/3 20/7/3 23/7/3 21/7/3
f 17/1/5 2/1/5 22/1/5 24/1/5
f 26/2/5 25/1/5 27/1/5 28/2/5
f 18/4/2 4/4/2 26/4/2 28/4/2
f 2/1/6 17/1/6 27/1/6 25/1/6
f 17/1/1 18/2/1 28/2/1 27/1/1
f 29/11/4 31/6/4 32/8/4 30/12/4
f 36/6/3 35/8/3 32/8/3 31/6/3
f 46/12/4 45/8/4 42/8/4 41/12/4
f 33/3/2 36/6/2 31/6/2 29/3/2
f 3/3/2 7/6/2 36/6/2 33/3/2
f 5/8/6 1/12/6 34/12/6 35/8/6
f 7/6/3 5/8/3 35/8/3 36/6/3
f 1/12/5 3/11/5 33/11/5 34/12/5
f 40/12/5 39/11/5 37/11/5 38/12/5
f 51/12/1 50/11/1 39/11/1 40/12/1
f 49/11/4 52/12/4 38/12/4 37/11/4
f 52/12/3 51/12/3 56/12/3 55/12/3
f 43/8/6 44/12/6 41/12/6 42/8/6
f 92/8/2 94/8/2 100/8/2 97/8/2
f 47/8/1 48/12/1 44/12/1 43/8/1
f 57/12/4 41/12/4 61/12/4 63/12/4
f 34/12/5 30/12/5 46/12/5 48/12/5
f 35/8/1 34/12/1 48/12/1 47/8/1
f 32/8/3 35/8/3 47/8/3 45/8/3
f 30/12/4 32/8/4 45/8/4 46/12/4
f 30/12/6 34/12/6 51/12/6 52/12/6
f 29/11/4 30/12/4 52/12/4 49/11/4
f 34/12/1 33/11/1 50/11/1 51/12/1
f 33/3/2 29/3/2 49/3/2 50/3/2
f 55/12/6 56/12/6 54/12/6 53/12/6
f 51/12/1 40/12/1 54/12/1 56/12/1
f 54/12/3 40/12/3 69/12/3 70/12/3
f 38/12/4 52/12/4 55/12/4 53/12/4
f 59/12/5 60/12/5 57/12/5 58/12/5
f 46/12/4 41/12/4 57/12/4 60/12/4
f 44/12/1 48/12/1 59/12/1 58/12/1
f 48/12/2 46/12/2 60/12/2 59/12/2
f 61/12/6 62/12/6 64/12/6 63/12/6
f 41/12/3 44/12/3 62/12/3 61/12/3
f 62/12/3 44/12/3 73/12/3 75/12/3
f 58/12/5 57/12/5 63/12/5 64/12/5
f 66/12/5 65/12/5 67/12/5 68/12/5
f 53/12/6 54/12/6 68/12/6 67/12/6
f 38/12/4 53/12/4 67/12/4 65/12/4
f 40/12/2 38/12/2 65/12/2 66/12/2
f 70/12/1 69/12/1 71/12/1 72/12/1
f 40/12/2 66/12/2 71/12/2 69/12/2
f 71/12/2 66/12/2 105/12/2 107/12/2
f 68/12/6 54/12/6 70/12/6 72/12/6
f 73/12/1 74/12/1 76/12/1 75/12/1
f 64/12/4 62/12/4 101/12/4 102/12/4
f 44/12/2 58/12/2 74/12/2 73/12/2
f 58/12/5 64/12/5 76/12/5 74/12/5
f 80/3/2 79/3/2 78/3/2 77/3/2
f 83/11/5 82/11/5 77/11/5 78/11/5
f 84/11/4 83/11/4 78/11/4 79/11/4
f 81/3/3 84/3/3 79/3/3 80/3/3
f 50/3/3 49/3/3 84/3/3 81/3/3
f 49/11/4 37/11/4 83/11/4 84/11/4
f 37/11/5 39/11/5 82/11/5 83/11/5
f 39/11/1 50/11/1 81/11/1 82/11/1
f 88/11/1 87/11/1 86/11/1 85/11/1
f 77/11/5 82/11/5 88/11/5 85/11/5
f 81/3/3 80/3/3 86/3/3 87/3/3
f 82/11/6 81/11/6 87/11/6 88/11/6
f 91/8/3 92/8/3 89/8/3 90/8/3
f 96/15/4 95/8/4 91/8/4 90/8/4
f 95/8/2 94/8/2 92/8/2 91/8/2
f 93/8/6 96/15/6 90/8/6 89/8/6
f 43/8/6 42/8/6 96/15/6 93/8/6
f 45/8/2 47/8/2 94/8/2 95/8/2
f 42/8/4 45/8/4 95/8/4 96/15/4
f 47/8/1 43/8/1 93/8/1 94/8/1
f 100/8/1 99/8/1 98/8/1 97/8/1
f 93/8/6 89/8/6 98/8/6 99/8/6
f 94/8/5 93/8/5 99/8/5 100/8/5
f 89/8/3 92/8/3 97/8/3 98/8/3
f 102/12/6 101/12/6 103/12/6 104/12/6
f 62/12/3 75/12/3 103/12/3 101/12/3
f 75/12/1 76/12/1 104/12/1 103/12/1
f 76/12/5 64/12/5 102/12/5 104/12/5
f 105/12/5 106/12/5 108/12/5 107/12/5
f 68/12/6 72/12/6 108/12/6 106/12/6
f 66/12/4 68/12/4 106/12/4 105/12/4
f 72/12/1 71/12/1 107/12/1 108/12/1
